<mxfile host="app.diagrams.net" agent="Mozilla/5.0 (Windows NT 10.0; Win64; x64) AppleWebKit/537.36 (KHTML, like Gecko) Chrome/130.0.0.0 Safari/537.36" version="24.8.3" pages="2">
  <diagram id="R2lEEEUBdFMjLlhIrx00" name="QuizMandat">
    <mxGraphModel dx="880" dy="1622" grid="1" gridSize="10" guides="1" tooltips="1" connect="1" arrows="1" fold="1" page="1" pageScale="1" pageWidth="850" pageHeight="1100" math="0" shadow="0" extFonts="Permanent Marker^https://fonts.googleapis.com/css?family=Permanent+Marker">
      <root>
        <mxCell id="0" />
        <mxCell id="1" parent="0" />
        <mxCell id="PsKPcAxsA8AMbl1Ifl2C-2" value="Pembayaran" style="whiteSpace=wrap;html=1;align=center;" vertex="1" parent="1">
          <mxGeometry x="450" y="-340" width="100" height="40" as="geometry" />
        </mxCell>
        <mxCell id="PsKPcAxsA8AMbl1Ifl2C-3" value="Layanan_tambahan" style="whiteSpace=wrap;html=1;align=center;" vertex="1" parent="1">
          <mxGeometry x="435" y="290" width="110" height="50" as="geometry" />
        </mxCell>
        <mxCell id="PsKPcAxsA8AMbl1Ifl2C-4" value="Reservasi" style="whiteSpace=wrap;html=1;align=center;" vertex="1" parent="1">
          <mxGeometry x="440" width="100" height="40" as="geometry" />
        </mxCell>
        <mxCell id="PsKPcAxsA8AMbl1Ifl2C-5" value="Kamar" style="whiteSpace=wrap;html=1;align=center;" vertex="1" parent="1">
          <mxGeometry x="800" width="100" height="40" as="geometry" />
        </mxCell>
        <mxCell id="PsKPcAxsA8AMbl1Ifl2C-6" value="Tipe_kamar" style="whiteSpace=wrap;html=1;align=center;" vertex="1" parent="1">
          <mxGeometry x="800" y="220" width="100" height="40" as="geometry" />
        </mxCell>
        <mxCell id="PsKPcAxsA8AMbl1Ifl2C-7" value="Pelanggan" style="whiteSpace=wrap;html=1;align=center;" vertex="1" parent="1">
          <mxGeometry x="175" width="100" height="40" as="geometry" />
        </mxCell>
        <mxCell id="PsKPcAxsA8AMbl1Ifl2C-8" value="Email" style="ellipse;whiteSpace=wrap;html=1;align=center;" vertex="1" parent="1">
          <mxGeometry x="130" y="70" width="100" height="40" as="geometry" />
        </mxCell>
        <mxCell id="PsKPcAxsA8AMbl1Ifl2C-9" value="No_Telepon" style="ellipse;whiteSpace=wrap;html=1;align=center;" vertex="1" parent="1">
          <mxGeometry x="30" y="30" width="100" height="40" as="geometry" />
        </mxCell>
        <mxCell id="PsKPcAxsA8AMbl1Ifl2C-10" value="Alamat" style="ellipse;whiteSpace=wrap;html=1;align=center;" vertex="1" parent="1">
          <mxGeometry x="10" y="-30" width="100" height="40" as="geometry" />
        </mxCell>
        <mxCell id="PsKPcAxsA8AMbl1Ifl2C-11" value="Nama" style="ellipse;whiteSpace=wrap;html=1;align=center;" vertex="1" parent="1">
          <mxGeometry x="90" y="-80" width="100" height="40" as="geometry" />
        </mxCell>
        <mxCell id="PsKPcAxsA8AMbl1Ifl2C-12" value="Id_Pelanggan" style="ellipse;whiteSpace=wrap;html=1;align=center;fontStyle=4;" vertex="1" parent="1">
          <mxGeometry x="195" y="-90" width="100" height="40" as="geometry" />
        </mxCell>
        <mxCell id="PsKPcAxsA8AMbl1Ifl2C-13" value="Harga_permalam" style="ellipse;whiteSpace=wrap;html=1;align=center;" vertex="1" parent="1">
          <mxGeometry x="770" y="310" width="100" height="40" as="geometry" />
        </mxCell>
        <mxCell id="PsKPcAxsA8AMbl1Ifl2C-14" value="Deskripsi" style="ellipse;whiteSpace=wrap;html=1;align=center;" vertex="1" parent="1">
          <mxGeometry x="650" y="260" width="100" height="40" as="geometry" />
        </mxCell>
        <mxCell id="PsKPcAxsA8AMbl1Ifl2C-15" value="Nama_tipe" style="ellipse;whiteSpace=wrap;html=1;align=center;" vertex="1" parent="1">
          <mxGeometry x="660" y="170" width="100" height="40" as="geometry" />
        </mxCell>
        <mxCell id="PsKPcAxsA8AMbl1Ifl2C-16" value="Id_tipekamar" style="ellipse;whiteSpace=wrap;html=1;align=center;fontStyle=4;" vertex="1" parent="1">
          <mxGeometry x="760" y="130" width="100" height="40" as="geometry" />
        </mxCell>
        <mxCell id="PsKPcAxsA8AMbl1Ifl2C-17" value="Status_kamar" style="ellipse;whiteSpace=wrap;html=1;align=center;" vertex="1" parent="1">
          <mxGeometry x="690" y="55" width="100" height="40" as="geometry" />
        </mxCell>
        <mxCell id="PsKPcAxsA8AMbl1Ifl2C-18" value="Id_tipe_kamar" style="ellipse;whiteSpace=wrap;html=1;align=center;" vertex="1" parent="1">
          <mxGeometry x="695" y="-70" width="100" height="40" as="geometry" />
        </mxCell>
        <mxCell id="PsKPcAxsA8AMbl1Ifl2C-19" value="No_kamar" style="ellipse;whiteSpace=wrap;html=1;align=center;" vertex="1" parent="1">
          <mxGeometry x="770" y="-110" width="100" height="40" as="geometry" />
        </mxCell>
        <mxCell id="PsKPcAxsA8AMbl1Ifl2C-20" value="Id_kamar" style="ellipse;whiteSpace=wrap;html=1;align=center;fontStyle=4;" vertex="1" parent="1">
          <mxGeometry x="870" y="-90" width="100" height="40" as="geometry" />
        </mxCell>
        <mxCell id="PsKPcAxsA8AMbl1Ifl2C-22" value="Status_reservasi" style="ellipse;whiteSpace=wrap;html=1;align=center;" vertex="1" parent="1">
          <mxGeometry x="530" y="60" width="100" height="40" as="geometry" />
        </mxCell>
        <mxCell id="PsKPcAxsA8AMbl1Ifl2C-23" value="Waktu_checkout" style="ellipse;whiteSpace=wrap;html=1;align=center;" vertex="1" parent="1">
          <mxGeometry x="400" y="90" width="100" height="40" as="geometry" />
        </mxCell>
        <mxCell id="PsKPcAxsA8AMbl1Ifl2C-24" value="Waktu_checkin" style="ellipse;whiteSpace=wrap;html=1;align=center;" vertex="1" parent="1">
          <mxGeometry x="325" y="60" width="100" height="40" as="geometry" />
        </mxCell>
        <mxCell id="PsKPcAxsA8AMbl1Ifl2C-25" value="Tanggal_reservasi" style="ellipse;whiteSpace=wrap;html=1;align=center;" vertex="1" parent="1">
          <mxGeometry x="325" y="-50" width="110" height="40" as="geometry" />
        </mxCell>
        <mxCell id="PsKPcAxsA8AMbl1Ifl2C-26" value="Id_pelanggan" style="ellipse;whiteSpace=wrap;html=1;align=center;" vertex="1" parent="1">
          <mxGeometry x="385" y="-100" width="100" height="40" as="geometry" />
        </mxCell>
        <mxCell id="PsKPcAxsA8AMbl1Ifl2C-27" value="Id_reservasi" style="ellipse;whiteSpace=wrap;html=1;align=center;fontStyle=4;" vertex="1" parent="1">
          <mxGeometry x="540" y="-80" width="100" height="40" as="geometry" />
        </mxCell>
        <mxCell id="PsKPcAxsA8AMbl1Ifl2C-28" value="Harga_layanan" style="ellipse;whiteSpace=wrap;html=1;align=center;" vertex="1" parent="1">
          <mxGeometry x="470" y="370" width="100" height="40" as="geometry" />
        </mxCell>
        <mxCell id="PsKPcAxsA8AMbl1Ifl2C-29" value="Nama_layanan" style="ellipse;whiteSpace=wrap;html=1;align=center;" vertex="1" parent="1">
          <mxGeometry x="350" y="380" width="100" height="40" as="geometry" />
        </mxCell>
        <mxCell id="PsKPcAxsA8AMbl1Ifl2C-30" value="Id_layanan" style="ellipse;whiteSpace=wrap;html=1;align=center;fontStyle=4;" vertex="1" parent="1">
          <mxGeometry x="300" y="300" width="100" height="40" as="geometry" />
        </mxCell>
        <mxCell id="PsKPcAxsA8AMbl1Ifl2C-31" value="Status_pembayaran" style="ellipse;whiteSpace=wrap;html=1;align=center;" vertex="1" parent="1">
          <mxGeometry x="565" y="-400" width="120" height="40" as="geometry" />
        </mxCell>
        <mxCell id="PsKPcAxsA8AMbl1Ifl2C-32" value="Metode_pembayaran" style="ellipse;whiteSpace=wrap;html=1;align=center;" vertex="1" parent="1">
          <mxGeometry x="560" y="-270" width="120" height="40" as="geometry" />
        </mxCell>
        <mxCell id="PsKPcAxsA8AMbl1Ifl2C-33" value="Jumlah_pembayaran" style="ellipse;whiteSpace=wrap;html=1;align=center;" vertex="1" parent="1">
          <mxGeometry x="300" y="-280" width="130" height="40" as="geometry" />
        </mxCell>
        <mxCell id="PsKPcAxsA8AMbl1Ifl2C-35" value="Id_reservasi" style="ellipse;whiteSpace=wrap;html=1;align=center;" vertex="1" parent="1">
          <mxGeometry x="385" y="-410" width="100" height="40" as="geometry" />
        </mxCell>
        <mxCell id="PsKPcAxsA8AMbl1Ifl2C-36" value="Id_pembayaran" style="ellipse;whiteSpace=wrap;html=1;align=center;fontStyle=4;" vertex="1" parent="1">
          <mxGeometry x="485" y="-440" width="100" height="40" as="geometry" />
        </mxCell>
        <mxCell id="PsKPcAxsA8AMbl1Ifl2C-44" value="" style="endArrow=none;html=1;rounded=0;fontSize=12;startSize=8;endSize=8;curved=1;exitX=1;exitY=0.5;exitDx=0;exitDy=0;" edge="1" parent="1" source="PsKPcAxsA8AMbl1Ifl2C-7">
          <mxGeometry width="50" height="50" relative="1" as="geometry">
            <mxPoint x="410" y="270" as="sourcePoint" />
            <mxPoint x="440" y="20" as="targetPoint" />
          </mxGeometry>
        </mxCell>
        <mxCell id="PsKPcAxsA8AMbl1Ifl2C-45" value="1" style="text;html=1;align=center;verticalAlign=middle;whiteSpace=wrap;rounded=0;fontSize=16;" vertex="1" parent="1">
          <mxGeometry x="470" y="-30" width="40" height="20" as="geometry" />
        </mxCell>
        <mxCell id="PsKPcAxsA8AMbl1Ifl2C-47" value="" style="endArrow=none;html=1;rounded=0;fontSize=12;startSize=8;endSize=8;curved=1;exitX=0.5;exitY=0;exitDx=0;exitDy=0;entryX=0.5;entryY=1;entryDx=0;entryDy=0;" edge="1" parent="1" source="PsKPcAxsA8AMbl1Ifl2C-6" target="PsKPcAxsA8AMbl1Ifl2C-5">
          <mxGeometry width="50" height="50" relative="1" as="geometry">
            <mxPoint x="270" y="170" as="sourcePoint" />
            <mxPoint x="320" y="120" as="targetPoint" />
          </mxGeometry>
        </mxCell>
        <mxCell id="PsKPcAxsA8AMbl1Ifl2C-48" value="M" style="text;html=1;align=center;verticalAlign=middle;whiteSpace=wrap;rounded=0;fontSize=16;" vertex="1" parent="1">
          <mxGeometry x="405" y="20" width="30" height="20" as="geometry" />
        </mxCell>
        <mxCell id="PsKPcAxsA8AMbl1Ifl2C-49" value="M" style="text;html=1;align=center;verticalAlign=middle;whiteSpace=wrap;rounded=0;fontSize=16;" vertex="1" parent="1">
          <mxGeometry x="485" y="40" width="30" height="20" as="geometry" />
        </mxCell>
        <mxCell id="PsKPcAxsA8AMbl1Ifl2C-52" value="1" style="text;html=1;align=center;verticalAlign=middle;whiteSpace=wrap;rounded=0;fontSize=16;" vertex="1" parent="1">
          <mxGeometry x="780" width="30" height="25" as="geometry" />
        </mxCell>
        <mxCell id="PsKPcAxsA8AMbl1Ifl2C-53" value="1" style="text;html=1;align=center;verticalAlign=middle;whiteSpace=wrap;rounded=0;fontSize=16;" vertex="1" parent="1">
          <mxGeometry x="260" y="20" width="40" height="20" as="geometry" />
        </mxCell>
        <mxCell id="PsKPcAxsA8AMbl1Ifl2C-57" value="1" style="text;html=1;align=center;verticalAlign=middle;whiteSpace=wrap;rounded=0;fontSize=16;" vertex="1" parent="1">
          <mxGeometry x="525" width="40" height="30" as="geometry" />
        </mxCell>
        <mxCell id="PsKPcAxsA8AMbl1Ifl2C-58" value="1" style="text;html=1;align=center;verticalAlign=middle;whiteSpace=wrap;rounded=0;fontSize=16;" vertex="1" parent="1">
          <mxGeometry x="835" y="195" width="45" height="25" as="geometry" />
        </mxCell>
        <mxCell id="PsKPcAxsA8AMbl1Ifl2C-63" value="M" style="text;html=1;align=center;verticalAlign=middle;whiteSpace=wrap;rounded=0;fontSize=16;" vertex="1" parent="1">
          <mxGeometry x="835" y="35" width="45" height="30" as="geometry" />
        </mxCell>
        <mxCell id="PsKPcAxsA8AMbl1Ifl2C-64" value="1" style="text;html=1;align=center;verticalAlign=middle;whiteSpace=wrap;rounded=0;fontSize=16;" vertex="1" parent="1">
          <mxGeometry x="470" y="-310" width="40" height="40" as="geometry" />
        </mxCell>
        <mxCell id="PsKPcAxsA8AMbl1Ifl2C-73" value="" style="endArrow=none;html=1;rounded=0;fontSize=12;startSize=8;endSize=8;curved=1;exitX=0.7;exitY=0.125;exitDx=0;exitDy=0;exitPerimeter=0;entryX=0;entryY=0.75;entryDx=0;entryDy=0;entryPerimeter=0;" edge="1" parent="1" source="PsKPcAxsA8AMbl1Ifl2C-17" target="PsKPcAxsA8AMbl1Ifl2C-5">
          <mxGeometry width="50" height="50" relative="1" as="geometry">
            <mxPoint x="280" y="100" as="sourcePoint" />
            <mxPoint x="330" y="50" as="targetPoint" />
          </mxGeometry>
        </mxCell>
        <mxCell id="PsKPcAxsA8AMbl1Ifl2C-74" value="" style="endArrow=none;html=1;rounded=0;fontSize=12;startSize=8;endSize=8;curved=1;exitX=0.57;exitY=1;exitDx=0;exitDy=0;entryX=0;entryY=0;entryDx=0;entryDy=0;exitPerimeter=0;" edge="1" parent="1" source="PsKPcAxsA8AMbl1Ifl2C-18" target="PsKPcAxsA8AMbl1Ifl2C-5">
          <mxGeometry width="50" height="50" relative="1" as="geometry">
            <mxPoint x="280" y="70" as="sourcePoint" />
            <mxPoint x="330" y="20" as="targetPoint" />
          </mxGeometry>
        </mxCell>
        <mxCell id="PsKPcAxsA8AMbl1Ifl2C-75" value="" style="endArrow=none;html=1;rounded=0;fontSize=12;startSize=8;endSize=8;curved=1;exitX=0.18;exitY=0.075;exitDx=0;exitDy=0;exitPerimeter=0;entryX=0.5;entryY=1;entryDx=0;entryDy=0;" edge="1" parent="1" source="PsKPcAxsA8AMbl1Ifl2C-5" target="PsKPcAxsA8AMbl1Ifl2C-19">
          <mxGeometry width="50" height="50" relative="1" as="geometry">
            <mxPoint x="290" y="20" as="sourcePoint" />
            <mxPoint x="340" y="-30" as="targetPoint" />
          </mxGeometry>
        </mxCell>
        <mxCell id="PsKPcAxsA8AMbl1Ifl2C-76" value="" style="endArrow=none;html=1;rounded=0;fontSize=12;startSize=8;endSize=8;curved=1;exitX=0.84;exitY=-0.025;exitDx=0;exitDy=0;exitPerimeter=0;entryX=0.35;entryY=0.925;entryDx=0;entryDy=0;entryPerimeter=0;" edge="1" parent="1" source="PsKPcAxsA8AMbl1Ifl2C-5" target="PsKPcAxsA8AMbl1Ifl2C-20">
          <mxGeometry width="50" height="50" relative="1" as="geometry">
            <mxPoint x="395" y="20" as="sourcePoint" />
            <mxPoint x="445" y="-30" as="targetPoint" />
          </mxGeometry>
        </mxCell>
        <mxCell id="PsKPcAxsA8AMbl1Ifl2C-77" value="" style="endArrow=none;html=1;rounded=0;fontSize=12;startSize=8;endSize=8;curved=1;exitX=0.5;exitY=0;exitDx=0;exitDy=0;entryX=0.5;entryY=1;entryDx=0;entryDy=0;" edge="1" parent="1" source="PsKPcAxsA8AMbl1Ifl2C-8" target="PsKPcAxsA8AMbl1Ifl2C-7">
          <mxGeometry width="50" height="50" relative="1" as="geometry">
            <mxPoint x="200" y="450" as="sourcePoint" />
            <mxPoint x="250" y="400" as="targetPoint" />
          </mxGeometry>
        </mxCell>
        <mxCell id="PsKPcAxsA8AMbl1Ifl2C-78" value="" style="endArrow=none;html=1;rounded=0;fontSize=12;startSize=8;endSize=8;curved=1;exitX=1;exitY=1;exitDx=0;exitDy=0;entryX=0;entryY=0.25;entryDx=0;entryDy=0;" edge="1" parent="1" source="PsKPcAxsA8AMbl1Ifl2C-10" target="PsKPcAxsA8AMbl1Ifl2C-7">
          <mxGeometry width="50" height="50" relative="1" as="geometry">
            <mxPoint x="150" y="430" as="sourcePoint" />
            <mxPoint x="200" y="380" as="targetPoint" />
          </mxGeometry>
        </mxCell>
        <mxCell id="PsKPcAxsA8AMbl1Ifl2C-79" value="" style="endArrow=none;html=1;rounded=0;fontSize=12;startSize=8;endSize=8;curved=1;exitX=1;exitY=0.5;exitDx=0;exitDy=0;entryX=0;entryY=0.75;entryDx=0;entryDy=0;" edge="1" parent="1" source="PsKPcAxsA8AMbl1Ifl2C-9" target="PsKPcAxsA8AMbl1Ifl2C-7">
          <mxGeometry width="50" height="50" relative="1" as="geometry">
            <mxPoint x="150" y="440" as="sourcePoint" />
            <mxPoint x="200" y="390" as="targetPoint" />
          </mxGeometry>
        </mxCell>
        <mxCell id="PsKPcAxsA8AMbl1Ifl2C-80" value="" style="endArrow=none;html=1;rounded=0;fontSize=12;startSize=8;endSize=8;curved=1;exitX=0.08;exitY=0.05;exitDx=0;exitDy=0;exitPerimeter=0;entryX=0.63;entryY=1.05;entryDx=0;entryDy=0;entryPerimeter=0;" edge="1" parent="1" source="PsKPcAxsA8AMbl1Ifl2C-7" target="PsKPcAxsA8AMbl1Ifl2C-11">
          <mxGeometry width="50" height="50" relative="1" as="geometry">
            <mxPoint x="140" y="400" as="sourcePoint" />
            <mxPoint x="190" y="350" as="targetPoint" />
          </mxGeometry>
        </mxCell>
        <mxCell id="PsKPcAxsA8AMbl1Ifl2C-81" value="" style="endArrow=none;html=1;rounded=0;fontSize=12;startSize=8;endSize=8;curved=1;exitX=0.59;exitY=0.075;exitDx=0;exitDy=0;exitPerimeter=0;entryX=0.44;entryY=0.95;entryDx=0;entryDy=0;entryPerimeter=0;" edge="1" parent="1" source="PsKPcAxsA8AMbl1Ifl2C-7" target="PsKPcAxsA8AMbl1Ifl2C-12">
          <mxGeometry width="50" height="50" relative="1" as="geometry">
            <mxPoint x="230" y="390" as="sourcePoint" />
            <mxPoint x="280" y="340" as="targetPoint" />
          </mxGeometry>
        </mxCell>
        <mxCell id="PsKPcAxsA8AMbl1Ifl2C-82" value="" style="endArrow=none;html=1;rounded=0;fontSize=12;startSize=8;endSize=8;curved=1;entryX=0.81;entryY=1.025;entryDx=0;entryDy=0;entryPerimeter=0;exitX=0;exitY=0.25;exitDx=0;exitDy=0;exitPerimeter=0;" edge="1" parent="1" source="PsKPcAxsA8AMbl1Ifl2C-6" target="PsKPcAxsA8AMbl1Ifl2C-15">
          <mxGeometry width="50" height="50" relative="1" as="geometry">
            <mxPoint x="50" y="190" as="sourcePoint" />
            <mxPoint x="100" y="140" as="targetPoint" />
          </mxGeometry>
        </mxCell>
        <mxCell id="PsKPcAxsA8AMbl1Ifl2C-83" value="" style="endArrow=none;html=1;rounded=0;fontSize=12;startSize=8;endSize=8;curved=1;entryX=0;entryY=0.5;entryDx=0;entryDy=0;entryPerimeter=0;exitX=0.6;exitY=-0.05;exitDx=0;exitDy=0;exitPerimeter=0;" edge="1" parent="1" source="PsKPcAxsA8AMbl1Ifl2C-14" target="PsKPcAxsA8AMbl1Ifl2C-6">
          <mxGeometry width="50" height="50" relative="1" as="geometry">
            <mxPoint x="70" y="225" as="sourcePoint" />
            <mxPoint x="120" y="175" as="targetPoint" />
          </mxGeometry>
        </mxCell>
        <mxCell id="PsKPcAxsA8AMbl1Ifl2C-84" value="" style="endArrow=none;html=1;rounded=0;fontSize=12;startSize=8;endSize=8;curved=1;entryX=0.44;entryY=1.025;entryDx=0;entryDy=0;entryPerimeter=0;exitX=0.62;exitY=0.025;exitDx=0;exitDy=0;exitPerimeter=0;" edge="1" parent="1" source="PsKPcAxsA8AMbl1Ifl2C-13" target="PsKPcAxsA8AMbl1Ifl2C-6">
          <mxGeometry width="50" height="50" relative="1" as="geometry">
            <mxPoint x="190" y="220" as="sourcePoint" />
            <mxPoint x="240" y="170" as="targetPoint" />
          </mxGeometry>
        </mxCell>
        <mxCell id="PsKPcAxsA8AMbl1Ifl2C-85" value="" style="endArrow=none;html=1;rounded=0;fontSize=12;startSize=8;endSize=8;curved=1;exitX=0.37;exitY=0.075;exitDx=0;exitDy=0;exitPerimeter=0;entryX=0.4;entryY=0.9;entryDx=0;entryDy=0;entryPerimeter=0;" edge="1" parent="1" source="PsKPcAxsA8AMbl1Ifl2C-6" target="PsKPcAxsA8AMbl1Ifl2C-16">
          <mxGeometry width="50" height="50" relative="1" as="geometry">
            <mxPoint x="140" y="180" as="sourcePoint" />
            <mxPoint x="190" y="130" as="targetPoint" />
          </mxGeometry>
        </mxCell>
        <mxCell id="PsKPcAxsA8AMbl1Ifl2C-86" value="" style="endArrow=none;html=1;rounded=0;fontSize=12;startSize=8;endSize=8;curved=1;entryX=0.33;entryY=0.975;entryDx=0;entryDy=0;entryPerimeter=0;exitX=0.59;exitY=-0.025;exitDx=0;exitDy=0;exitPerimeter=0;" edge="1" parent="1" source="PsKPcAxsA8AMbl1Ifl2C-23" target="PsKPcAxsA8AMbl1Ifl2C-4">
          <mxGeometry width="50" height="50" relative="1" as="geometry">
            <mxPoint x="425" y="88" as="sourcePoint" />
            <mxPoint x="510" y="270" as="targetPoint" />
          </mxGeometry>
        </mxCell>
        <mxCell id="PsKPcAxsA8AMbl1Ifl2C-87" value="" style="endArrow=none;html=1;rounded=0;fontSize=12;startSize=8;endSize=8;curved=1;exitX=0.17;exitY=-0.05;exitDx=0;exitDy=0;exitPerimeter=0;entryX=0.57;entryY=1.025;entryDx=0;entryDy=0;entryPerimeter=0;" edge="1" parent="1" source="PsKPcAxsA8AMbl1Ifl2C-2" target="PsKPcAxsA8AMbl1Ifl2C-35">
          <mxGeometry width="50" height="50" relative="1" as="geometry">
            <mxPoint x="670" y="30" as="sourcePoint" />
            <mxPoint x="650" y="-10" as="targetPoint" />
          </mxGeometry>
        </mxCell>
        <mxCell id="PsKPcAxsA8AMbl1Ifl2C-88" value="" style="endArrow=none;html=1;rounded=0;fontSize=12;startSize=8;endSize=8;curved=1;exitX=1;exitY=0;exitDx=0;exitDy=0;entryX=0.191;entryY=1.06;entryDx=0;entryDy=0;entryPerimeter=0;" edge="1" parent="1" source="PsKPcAxsA8AMbl1Ifl2C-29" target="PsKPcAxsA8AMbl1Ifl2C-3">
          <mxGeometry width="50" height="50" relative="1" as="geometry">
            <mxPoint x="715" y="495" as="sourcePoint" />
            <mxPoint x="765" y="445" as="targetPoint" />
          </mxGeometry>
        </mxCell>
        <mxCell id="PsKPcAxsA8AMbl1Ifl2C-89" value="" style="endArrow=none;html=1;rounded=0;fontSize=12;startSize=8;endSize=8;curved=1;exitX=1;exitY=0.5;exitDx=0;exitDy=0;entryX=0.267;entryY=0.95;entryDx=0;entryDy=0;entryPerimeter=0;" edge="1" parent="1" source="PsKPcAxsA8AMbl1Ifl2C-2" target="PsKPcAxsA8AMbl1Ifl2C-31">
          <mxGeometry width="50" height="50" relative="1" as="geometry">
            <mxPoint x="770" y="110" as="sourcePoint" />
            <mxPoint x="820" y="60" as="targetPoint" />
          </mxGeometry>
        </mxCell>
        <mxCell id="PsKPcAxsA8AMbl1Ifl2C-90" value="" style="endArrow=none;html=1;rounded=0;fontSize=12;startSize=8;endSize=8;curved=1;exitX=0.6;exitY=-0.05;exitDx=0;exitDy=0;exitPerimeter=0;entryX=0.35;entryY=1.025;entryDx=0;entryDy=0;entryPerimeter=0;" edge="1" parent="1" source="PsKPcAxsA8AMbl1Ifl2C-2" target="PsKPcAxsA8AMbl1Ifl2C-36">
          <mxGeometry width="50" height="50" relative="1" as="geometry">
            <mxPoint x="710" y="50" as="sourcePoint" />
            <mxPoint x="760" as="targetPoint" />
          </mxGeometry>
        </mxCell>
        <mxCell id="PsKPcAxsA8AMbl1Ifl2C-91" value="" style="endArrow=none;html=1;rounded=0;fontSize=12;startSize=8;endSize=8;curved=1;exitX=0.5;exitY=0;exitDx=0;exitDy=0;entryX=0.609;entryY=1.08;entryDx=0;entryDy=0;entryPerimeter=0;" edge="1" parent="1" source="PsKPcAxsA8AMbl1Ifl2C-28" target="PsKPcAxsA8AMbl1Ifl2C-3">
          <mxGeometry width="50" height="50" relative="1" as="geometry">
            <mxPoint x="750" y="500" as="sourcePoint" />
            <mxPoint x="800" y="450" as="targetPoint" />
          </mxGeometry>
        </mxCell>
        <mxCell id="PsKPcAxsA8AMbl1Ifl2C-92" value="" style="endArrow=none;html=1;rounded=0;fontSize=12;startSize=8;endSize=8;curved=1;exitX=1;exitY=0;exitDx=0;exitDy=0;entryX=0;entryY=0.5;entryDx=0;entryDy=0;" edge="1" parent="1" source="PsKPcAxsA8AMbl1Ifl2C-30" target="PsKPcAxsA8AMbl1Ifl2C-3">
          <mxGeometry width="50" height="50" relative="1" as="geometry">
            <mxPoint x="715" y="460" as="sourcePoint" />
            <mxPoint x="765" y="410" as="targetPoint" />
          </mxGeometry>
        </mxCell>
        <mxCell id="PsKPcAxsA8AMbl1Ifl2C-93" value="" style="endArrow=none;html=1;rounded=0;fontSize=12;startSize=8;endSize=8;curved=1;exitX=1;exitY=0;exitDx=0;exitDy=0;entryX=0.23;entryY=0.95;entryDx=0;entryDy=0;entryPerimeter=0;" edge="1" parent="1" source="PsKPcAxsA8AMbl1Ifl2C-4" target="PsKPcAxsA8AMbl1Ifl2C-27">
          <mxGeometry width="50" height="50" relative="1" as="geometry">
            <mxPoint x="550" y="265" as="sourcePoint" />
            <mxPoint x="600" y="215" as="targetPoint" />
            <Array as="points">
              <mxPoint x="550" y="-20" />
            </Array>
          </mxGeometry>
        </mxCell>
        <mxCell id="PsKPcAxsA8AMbl1Ifl2C-94" value="" style="endArrow=none;html=1;rounded=0;fontSize=12;startSize=8;endSize=8;curved=1;exitX=0;exitY=0.25;exitDx=0;exitDy=0;entryX=0.7;entryY=0.975;entryDx=0;entryDy=0;entryPerimeter=0;" edge="1" parent="1" source="PsKPcAxsA8AMbl1Ifl2C-4" target="PsKPcAxsA8AMbl1Ifl2C-25">
          <mxGeometry width="50" height="50" relative="1" as="geometry">
            <mxPoint x="375" y="260" as="sourcePoint" />
            <mxPoint x="425" y="210" as="targetPoint" />
          </mxGeometry>
        </mxCell>
        <mxCell id="PsKPcAxsA8AMbl1Ifl2C-95" value="" style="endArrow=none;html=1;rounded=0;fontSize=12;startSize=8;endSize=8;curved=1;exitX=0.75;exitY=0.025;exitDx=0;exitDy=0;entryX=0;entryY=0.75;entryDx=0;entryDy=0;exitPerimeter=0;" edge="1" parent="1" source="PsKPcAxsA8AMbl1Ifl2C-24" target="PsKPcAxsA8AMbl1Ifl2C-4">
          <mxGeometry width="50" height="50" relative="1" as="geometry">
            <mxPoint x="420" y="307.5" as="sourcePoint" />
            <mxPoint x="470" y="252.5" as="targetPoint" />
          </mxGeometry>
        </mxCell>
        <mxCell id="PsKPcAxsA8AMbl1Ifl2C-96" value="" style="endArrow=none;html=1;rounded=0;fontSize=12;startSize=8;endSize=8;curved=1;exitX=0.4;exitY=0;exitDx=0;exitDy=0;entryX=0.5;entryY=1;entryDx=0;entryDy=0;exitPerimeter=0;" edge="1" parent="1" source="PsKPcAxsA8AMbl1Ifl2C-4" target="PsKPcAxsA8AMbl1Ifl2C-26">
          <mxGeometry width="50" height="50" relative="1" as="geometry">
            <mxPoint x="470" y="235" as="sourcePoint" />
            <mxPoint x="520" y="185" as="targetPoint" />
          </mxGeometry>
        </mxCell>
        <mxCell id="PsKPcAxsA8AMbl1Ifl2C-97" value="" style="endArrow=none;html=1;rounded=0;fontSize=12;startSize=8;endSize=8;curved=1;exitX=0.28;exitY=0.05;exitDx=0;exitDy=0;exitPerimeter=0;entryX=0.88;entryY=1;entryDx=0;entryDy=0;entryPerimeter=0;" edge="1" parent="1" source="PsKPcAxsA8AMbl1Ifl2C-22" target="PsKPcAxsA8AMbl1Ifl2C-4">
          <mxGeometry width="50" height="50" relative="1" as="geometry">
            <mxPoint x="500" y="320" as="sourcePoint" />
            <mxPoint x="550" y="270" as="targetPoint" />
          </mxGeometry>
        </mxCell>
        <mxCell id="PsKPcAxsA8AMbl1Ifl2C-101" value="" style="endArrow=none;html=1;rounded=0;fontSize=12;startSize=8;endSize=8;curved=1;exitX=0.39;exitY=0.05;exitDx=0;exitDy=0;exitPerimeter=0;entryX=0.75;entryY=1;entryDx=0;entryDy=0;" edge="1" parent="1" source="PsKPcAxsA8AMbl1Ifl2C-32" target="PsKPcAxsA8AMbl1Ifl2C-2">
          <mxGeometry width="50" height="50" relative="1" as="geometry">
            <mxPoint x="690" y="130" as="sourcePoint" />
            <mxPoint x="740" y="80" as="targetPoint" />
          </mxGeometry>
        </mxCell>
        <mxCell id="PsKPcAxsA8AMbl1Ifl2C-102" value="" style="endArrow=none;html=1;rounded=0;fontSize=12;startSize=8;endSize=8;curved=1;exitX=1;exitY=0.5;exitDx=0;exitDy=0;entryX=0;entryY=0.5;entryDx=0;entryDy=0;" edge="1" parent="1" source="PsKPcAxsA8AMbl1Ifl2C-34" target="PsKPcAxsA8AMbl1Ifl2C-2">
          <mxGeometry width="50" height="50" relative="1" as="geometry">
            <mxPoint x="610" y="110" as="sourcePoint" />
            <mxPoint x="660" y="60" as="targetPoint" />
          </mxGeometry>
        </mxCell>
        <mxCell id="BiS70QTkkwCl3tOnQ6ui-2" value="" style="endArrow=none;html=1;rounded=0;fontSize=12;startSize=8;endSize=8;curved=1;exitX=1;exitY=0.5;exitDx=0;exitDy=0;entryX=0;entryY=0.5;entryDx=0;entryDy=0;" edge="1" parent="1" source="BiS70QTkkwCl3tOnQ6ui-4" target="PsKPcAxsA8AMbl1Ifl2C-5">
          <mxGeometry width="50" height="50" relative="1" as="geometry">
            <mxPoint x="750" y="65" as="sourcePoint" />
            <mxPoint x="800" y="15" as="targetPoint" />
          </mxGeometry>
        </mxCell>
        <mxCell id="BiS70QTkkwCl3tOnQ6ui-5" value="" style="endArrow=none;html=1;rounded=0;fontSize=12;startSize=8;endSize=8;curved=1;exitX=1;exitY=0.5;exitDx=0;exitDy=0;entryX=0;entryY=0.5;entryDx=0;entryDy=0;" edge="1" parent="1" source="PsKPcAxsA8AMbl1Ifl2C-4" target="BiS70QTkkwCl3tOnQ6ui-4">
          <mxGeometry width="50" height="50" relative="1" as="geometry">
            <mxPoint x="540" y="20" as="sourcePoint" />
            <mxPoint x="800" y="20" as="targetPoint" />
          </mxGeometry>
        </mxCell>
        <mxCell id="BiS70QTkkwCl3tOnQ6ui-4" value="Reservasi_kamar" style="shape=rhombus;perimeter=rhombusPerimeter;whiteSpace=wrap;html=1;align=center;" vertex="1" parent="1">
          <mxGeometry x="590" y="-10" width="120" height="60" as="geometry" />
        </mxCell>
        <mxCell id="BiS70QTkkwCl3tOnQ6ui-6" value="" style="endArrow=none;html=1;rounded=0;fontSize=12;startSize=8;endSize=8;curved=1;exitX=0.64;exitY=0.075;exitDx=0;exitDy=0;exitPerimeter=0;entryX=0;entryY=1;entryDx=0;entryDy=0;" edge="1" parent="1" source="PsKPcAxsA8AMbl1Ifl2C-33" target="PsKPcAxsA8AMbl1Ifl2C-2">
          <mxGeometry width="50" height="50" relative="1" as="geometry">
            <mxPoint x="513" y="403" as="sourcePoint" />
            <mxPoint x="860" y="580" as="targetPoint" />
          </mxGeometry>
        </mxCell>
        <mxCell id="PsKPcAxsA8AMbl1Ifl2C-34" value="Tanggal_pembayaran" style="ellipse;whiteSpace=wrap;html=1;align=center;" vertex="1" parent="1">
          <mxGeometry x="295" y="-345" width="130" height="45" as="geometry" />
        </mxCell>
        <mxCell id="BiS70QTkkwCl3tOnQ6ui-12" value="" style="endArrow=none;html=1;rounded=0;fontSize=12;startSize=8;endSize=8;curved=1;entryX=0.5;entryY=1;entryDx=0;entryDy=0;exitX=0.5;exitY=0;exitDx=0;exitDy=0;" edge="1" parent="1" source="PsKPcAxsA8AMbl1Ifl2C-46" target="PsKPcAxsA8AMbl1Ifl2C-4">
          <mxGeometry width="50" height="50" relative="1" as="geometry">
            <mxPoint x="490" y="290" as="sourcePoint" />
            <mxPoint x="540" y="240" as="targetPoint" />
          </mxGeometry>
        </mxCell>
        <mxCell id="BiS70QTkkwCl3tOnQ6ui-13" value="Reservasi_layanan" style="shape=rhombus;perimeter=rhombusPerimeter;whiteSpace=wrap;html=1;align=center;" vertex="1" parent="1">
          <mxGeometry x="425" y="150" width="130" height="60" as="geometry" />
        </mxCell>
        <mxCell id="BiS70QTkkwCl3tOnQ6ui-14" value="" style="endArrow=none;html=1;rounded=0;fontSize=12;startSize=8;endSize=8;curved=1;entryX=0.5;entryY=1;entryDx=0;entryDy=0;exitX=0.61;exitY=0.075;exitDx=0;exitDy=0;exitPerimeter=0;" edge="1" parent="1" source="PsKPcAxsA8AMbl1Ifl2C-4" target="PsKPcAxsA8AMbl1Ifl2C-2">
          <mxGeometry width="50" height="50" relative="1" as="geometry">
            <mxPoint x="500" y="-180" as="sourcePoint" />
            <mxPoint x="550" y="-230" as="targetPoint" />
          </mxGeometry>
        </mxCell>
        <mxCell id="BiS70QTkkwCl3tOnQ6ui-15" value="Melakukan" style="shape=rhombus;perimeter=rhombusPerimeter;whiteSpace=wrap;html=1;align=center;" vertex="1" parent="1">
          <mxGeometry x="440" y="-210" width="120" height="60" as="geometry" />
        </mxCell>
        <mxCell id="BiS70QTkkwCl3tOnQ6ui-19" value="" style="endArrow=none;html=1;rounded=0;fontSize=12;startSize=8;endSize=8;curved=1;entryX=0.5;entryY=1;entryDx=0;entryDy=0;exitX=0.5;exitY=0;exitDx=0;exitDy=0;" edge="1" parent="1" source="PsKPcAxsA8AMbl1Ifl2C-3" target="PsKPcAxsA8AMbl1Ifl2C-46">
          <mxGeometry width="50" height="50" relative="1" as="geometry">
            <mxPoint x="490" y="290" as="sourcePoint" />
            <mxPoint x="490" y="40" as="targetPoint" />
          </mxGeometry>
        </mxCell>
        <mxCell id="PsKPcAxsA8AMbl1Ifl2C-46" value="M" style="text;html=1;align=center;verticalAlign=middle;whiteSpace=wrap;rounded=0;fontSize=16;" vertex="1" parent="1">
          <mxGeometry x="485" y="270" width="30" height="20" as="geometry" />
        </mxCell>
      </root>
    </mxGraphModel>
  </diagram>
  <diagram id="0OWD9RStrgyNIky89GLV" name="Page-2">
    <mxGraphModel grid="0" page="0" gridSize="10" guides="1" tooltips="1" connect="1" arrows="1" fold="1" pageScale="1" pageWidth="850" pageHeight="1100" math="0" shadow="0">
      <root>
        <mxCell id="0" />
        <mxCell id="1" parent="0" />
      </root>
    </mxGraphModel>
  </diagram>
</mxfile>
